<mxfile host="app.diagrams.net" modified="2021-05-15T20:32:45.767Z" agent="5.0 (X11; CrOS aarch64 13816.64.0) AppleWebKit/537.36 (KHTML, like Gecko) Chrome/90.0.4430.100 Safari/537.36" etag="AACFGb6OqlxipMkNIZ37" version="14.6.13" type="github">
  <diagram id="1iBRumUyKnpnJ4A2ua40" name="Page-1">
    <mxGraphModel dx="582" dy="383" grid="1" gridSize="10" guides="1" tooltips="1" connect="1" arrows="1" fold="1" page="1" pageScale="1" pageWidth="850" pageHeight="1100" math="0" shadow="0">
      <root>
        <mxCell id="0" />
        <mxCell id="1" parent="0" />
        <mxCell id="agclczVLgzDCdSeCsVW9-8" style="edgeStyle=orthogonalEdgeStyle;rounded=0;orthogonalLoop=1;jettySize=auto;html=1;exitX=0.5;exitY=1;exitDx=0;exitDy=0;" edge="1" parent="1" source="agclczVLgzDCdSeCsVW9-1" target="agclczVLgzDCdSeCsVW9-3">
          <mxGeometry relative="1" as="geometry" />
        </mxCell>
        <mxCell id="agclczVLgzDCdSeCsVW9-9" style="edgeStyle=orthogonalEdgeStyle;rounded=0;orthogonalLoop=1;jettySize=auto;html=1;exitX=0.5;exitY=1;exitDx=0;exitDy=0;" edge="1" parent="1" source="agclczVLgzDCdSeCsVW9-1" target="agclczVLgzDCdSeCsVW9-2">
          <mxGeometry relative="1" as="geometry" />
        </mxCell>
        <mxCell id="agclczVLgzDCdSeCsVW9-12" style="edgeStyle=orthogonalEdgeStyle;rounded=0;orthogonalLoop=1;jettySize=auto;html=1;exitX=0.5;exitY=1;exitDx=0;exitDy=0;" edge="1" parent="1" source="agclczVLgzDCdSeCsVW9-1" target="agclczVLgzDCdSeCsVW9-4">
          <mxGeometry relative="1" as="geometry" />
        </mxCell>
        <mxCell id="agclczVLgzDCdSeCsVW9-1" value="Factorial Program" style="rounded=0;whiteSpace=wrap;html=1;" vertex="1" parent="1">
          <mxGeometry x="240" y="600" width="120" height="60" as="geometry" />
        </mxCell>
        <mxCell id="agclczVLgzDCdSeCsVW9-10" style="edgeStyle=orthogonalEdgeStyle;rounded=0;orthogonalLoop=1;jettySize=auto;html=1;exitX=0.5;exitY=1;exitDx=0;exitDy=0;entryX=0.5;entryY=0;entryDx=0;entryDy=0;" edge="1" parent="1" source="agclczVLgzDCdSeCsVW9-2" target="agclczVLgzDCdSeCsVW9-5">
          <mxGeometry relative="1" as="geometry" />
        </mxCell>
        <mxCell id="agclczVLgzDCdSeCsVW9-2" value="Input" style="rounded=0;whiteSpace=wrap;html=1;" vertex="1" parent="1">
          <mxGeometry x="90" y="700" width="120" height="60" as="geometry" />
        </mxCell>
        <mxCell id="agclczVLgzDCdSeCsVW9-11" style="edgeStyle=orthogonalEdgeStyle;rounded=0;orthogonalLoop=1;jettySize=auto;html=1;exitX=0.5;exitY=1;exitDx=0;exitDy=0;entryX=0.5;entryY=0;entryDx=0;entryDy=0;" edge="1" parent="1" source="agclczVLgzDCdSeCsVW9-3" target="agclczVLgzDCdSeCsVW9-6">
          <mxGeometry relative="1" as="geometry" />
        </mxCell>
        <mxCell id="agclczVLgzDCdSeCsVW9-3" value="Process" style="rounded=0;whiteSpace=wrap;html=1;" vertex="1" parent="1">
          <mxGeometry x="240" y="700" width="120" height="60" as="geometry" />
        </mxCell>
        <mxCell id="agclczVLgzDCdSeCsVW9-13" style="edgeStyle=orthogonalEdgeStyle;rounded=0;orthogonalLoop=1;jettySize=auto;html=1;exitX=0.5;exitY=1;exitDx=0;exitDy=0;entryX=0.5;entryY=0;entryDx=0;entryDy=0;" edge="1" parent="1" source="agclczVLgzDCdSeCsVW9-4" target="agclczVLgzDCdSeCsVW9-7">
          <mxGeometry relative="1" as="geometry" />
        </mxCell>
        <mxCell id="agclczVLgzDCdSeCsVW9-4" value="Outpur" style="rounded=0;whiteSpace=wrap;html=1;" vertex="1" parent="1">
          <mxGeometry x="390" y="700" width="120" height="60" as="geometry" />
        </mxCell>
        <mxCell id="agclczVLgzDCdSeCsVW9-5" value="Get number" style="rounded=0;whiteSpace=wrap;html=1;" vertex="1" parent="1">
          <mxGeometry x="90" y="790" width="120" height="60" as="geometry" />
        </mxCell>
        <mxCell id="agclczVLgzDCdSeCsVW9-6" value="Calculate factorial with while loop" style="rounded=0;whiteSpace=wrap;html=1;" vertex="1" parent="1">
          <mxGeometry x="240" y="790" width="120" height="60" as="geometry" />
        </mxCell>
        <mxCell id="agclczVLgzDCdSeCsVW9-7" value="Show answer" style="rounded=0;whiteSpace=wrap;html=1;" vertex="1" parent="1">
          <mxGeometry x="390" y="790" width="120" height="60" as="geometry" />
        </mxCell>
      </root>
    </mxGraphModel>
  </diagram>
</mxfile>
